<?xml version="1.0" standalone="no"?>
<!DOCTYPE svg PUBLIC "-//W3C//DTD SVG 20010904//EN"
 "http://www.w3.org/TR/2001/REC-SVG-20010904/DTD/svg10.dtd">
<svg version="1.0" xmlns="http://www.w3.org/2000/svg"
 width="1024.000000pt" height="1024.000000pt" viewBox="0 0 1024.000000 1024.000000"
 preserveAspectRatio="xMidYMid meet">
<metadata>
Created by potrace 1.11, written by Peter Selinger 2001-2013
</metadata>
<g transform="translate(0.000000,1024.000000) scale(0.100000,-0.100000)"
fill="#000000" stroke="none">
<path d="M1800 10229 c-945 -96 -1695 -852 -1789 -1803 -15 -153 -15 -6459 0
-6612 94 -959 844 -1709 1803 -1803 153 -15 6459 -15 6612 0 959 94 1709 844
1803 1803 15 153 15 6459 0 6612 -94 959 -844 1709 -1803 1803 -134 13 -6495
13 -6626 0z m6780 -3949 l0 -1560 -715 0 -715 0 0 1560 0 1560 715 0 715 0 0
-1560z m-5105 -296 c463 -1616 521 -1813 531 -1787 6 15 238 832 515 1816
l504 1787 769 0 c610 0 767 -3 764 -12 -3 -7 -416 -1207 -919 -2666 l-914
-2652 -728 2 -729 3 -872 2500 c-480 1375 -898 2573 -929 2663 l-57 162 773 0
772 0 520 -1816z m5105 -2824 l0 -690 -715 0 -715 0 0 690 0 690 715 0 715 0
0 -690z"/>
</g>
</svg>
